<svg xmlns="http://www.w3.org/2000/svg" viewBox="0 0 1200 560" role="img" aria-labelledby="title desc">
  <title id="title">洗練した日本旅行ルート参考図</title>
  <desc id="desc">大阪、京都、小田原、箱根、東京を主な流れとして示し、箱根から直接分かれる富士山エリアへの任意寄り道を東京前に示した参考図。</desc>
  <defs>
    <filter id="panelShadow" x="-12%" y="-12%" width="124%" height="124%">
      <feDropShadow dx="0" dy="18" stdDeviation="24" flood-color="#3c2b23" flood-opacity="0.11"/>
    </filter>
    <marker id="routeArrow" markerWidth="17" markerHeight="17" refX="13" refY="8.5" orient="auto" markerUnits="userSpaceOnUse">
      <path d="M2 2L13 8.5L2 15" fill="none" stroke="#c85a44" stroke-width="2.5" stroke-linecap="round" stroke-linejoin="round"/>
    </marker>
    <marker id="detourArrow" markerWidth="15" markerHeight="15" refX="11" refY="7.5" orient="auto" markerUnits="userSpaceOnUse">
      <path d="M2 2L11 7.5L2 13" fill="none" stroke="#dc9e8b" stroke-width="2.2" stroke-linecap="round" stroke-linejoin="round"/>
    </marker>
  </defs>

  <rect width="1200" height="560" rx="36" fill="#f6f3ef"/>
  <g filter="url(#panelShadow)">
    <rect x="44" y="44" width="1112" height="472" rx="28" fill="#fffdfa" stroke="#ebdfd3" stroke-width="2"/>
  </g>

  <circle cx="1062" cy="112" r="40" fill="#f3ddd4" opacity="0.04"/>
  <circle cx="124" cy="444" r="48" fill="#dfe8e2" opacity="0.04"/>

  <g font-family="'Hiragino Sans', 'Yu Gothic', sans-serif">
    <text x="108" y="118" fill="#c85a44" font-size="18" font-weight="700" letter-spacing="2.4">移動方向</text>
    <text x="216" y="118" fill="#c85a44" font-size="22" font-weight="700">→</text>
    <text x="160" y="164" fill="#c85a44" font-size="16" font-weight="700" letter-spacing="2">出発</text>
    <text x="1070" y="164" text-anchor="middle" fill="#c85a44" font-size="16" font-weight="700" letter-spacing="2">到着</text>
  </g>

  <g fill="none" stroke="#c85a44" stroke-width="8.4" stroke-linecap="round" stroke-linejoin="round">
    <path d="M175 322H356" marker-end="url(#routeArrow)"/>
    <path d="M395 322H576" marker-end="url(#routeArrow)"/>
    <path d="M615 322H796" marker-end="url(#routeArrow)"/>
    <path d="M835 322H1046" marker-end="url(#routeArrow)"/>
  </g>

  <g fill="none" stroke="#dc9e8b" stroke-width="5" stroke-linecap="round" stroke-linejoin="round" stroke-dasharray="10 12">
    <path d="M820 338C820 374 850 404 920 418" marker-end="url(#detourArrow)"/>
    <path d="M944 418C1014 418 1050 388 1060 342" marker-end="url(#detourArrow)"/>
  </g>

  <g fill="#c85a44" stroke="#fffdfa" stroke-width="4.5">
    <circle cx="160" cy="322" r="14"/>
    <circle cx="380" cy="322" r="14"/>
    <circle cx="600" cy="322" r="14"/>
    <circle cx="820" cy="322" r="14"/>
    <circle cx="1070" cy="322" r="14"/>
    <circle cx="932" cy="420" r="12" fill="#dc9e8b"/>
  </g>

  <g fill="#262b2d" text-anchor="middle" font-family="'Hiragino Sans', 'Yu Gothic', sans-serif">
    <text x="160" y="202" font-size="46" font-weight="700">大阪</text>
    <text x="380" y="202" font-size="46" font-weight="700">京都</text>
    <text x="600" y="204" font-size="32" font-weight="560">小田原</text>
    <text x="820" y="202" font-size="38" font-weight="650">箱根</text>
    <text x="1070" y="202" font-size="46" font-weight="700">東京</text>
  </g>

  <g fill="#262b2d" text-anchor="middle" font-family="'Hiragino Sans', 'Yu Gothic', sans-serif">
    <text x="932" y="470" font-size="30" font-weight="700">富士山エリア</text>
    <text x="932" y="500" font-size="18" font-weight="500" fill="#677173">任意の富士山寄り道</text>
  </g>
</svg>
