<svg xmlns="http://www.w3.org/2000/svg" viewBox="0 0 1200 720" role="img" aria-labelledby="title desc">
  <title id="title">Japan trip route preview</title>
  <desc id="desc">Fast static preview of the Osaka to Tokyo route.</desc>
  <defs>
    <linearGradient id="bg" x1="0" y1="0" x2="1" y2="1">
      <stop offset="0%" stop-color="#fbf6ef"/>
      <stop offset="55%" stop-color="#efe3d6"/>
      <stop offset="100%" stop-color="#e6d7ca"/>
    </linearGradient>
    <linearGradient id="route" x1="180" y1="580" x2="1036" y2="150" gradientUnits="userSpaceOnUse">
      <stop offset="0%" stop-color="#d97e69"/>
      <stop offset="100%" stop-color="#8d3a2f"/>
    </linearGradient>
  </defs>
  <rect width="1200" height="720" rx="36" fill="url(#bg)"/>
  <g opacity="0.22" stroke="#ccb8a8" stroke-width="1" stroke-dasharray="8 12">
    <line x1="92" y1="120" x2="1108" y2="120"/>
    <line x1="92" y1="220" x2="1108" y2="220"/>
    <line x1="92" y1="320" x2="1108" y2="320"/>
    <line x1="92" y1="420" x2="1108" y2="420"/>
    <line x1="92" y1="520" x2="1108" y2="520"/>
    <line x1="120" y1="92" x2="120" y2="628"/>
    <line x1="300" y1="92" x2="300" y2="628"/>
    <line x1="480" y1="92" x2="480" y2="628"/>
    <line x1="660" y1="92" x2="660" y2="628"/>
    <line x1="840" y1="92" x2="840" y2="628"/>
    <line x1="1020" y1="92" x2="1020" y2="628"/>
  </g>
  <g fill="none" stroke-linecap="round" stroke-linejoin="round">
    <path d="M180 580 L238 448 L186 572 L202 548 L844 336 L924 242 L1036 150" stroke="#fff7f1" stroke-width="20" opacity="0.9"/>
    <path d="M180 580 L238 448 L186 572 L202 548 L844 336 L924 242 L1036 150" stroke="url(#route)" stroke-width="8"/>
  </g>
  <g font-family="'Zen Kaku Gothic New','Segoe UI',sans-serif" fill="#2f2926">
    <text x="104" y="118" font-size="16" font-weight="700" letter-spacing="3">STATIC ROUTE PREVIEW</text>
    <text x="104" y="160" font-family="'Cormorant Garamond','Times New Roman',serif" font-size="42" font-weight="700">Osaka to Tokyo path</text>
    <text x="104" y="194" font-size="20" font-weight="500" fill="#675c56">Fast first view only. Open Google Maps for live directions.</text>
  </g>
  <g font-family="'Zen Kaku Gothic New','Segoe UI',sans-serif" font-weight="600" font-size="24" fill="#2f2926">
    <g>
      <circle cx="180" cy="580" r="18" fill="rgba(155,60,51,0.14)"/>
      <circle cx="180" cy="580" r="8.5" fill="#a74539" stroke="#fff8f2" stroke-width="4"/>
      <text x="180" y="612" text-anchor="middle">Osaka</text>
    </g>
    <g>
      <circle cx="238" cy="448" r="18" fill="rgba(155,60,51,0.14)"/>
      <circle cx="238" cy="448" r="8.5" fill="#a74539" stroke="#fff8f2" stroke-width="4"/>
      <text x="256" y="432">Kyoto</text>
    </g>
    <g>
      <circle cx="202" cy="548" r="18" fill="rgba(155,60,51,0.14)"/>
      <circle cx="202" cy="548" r="8.5" fill="#a74539" stroke="#fff8f2" stroke-width="4"/>
      <text x="222" y="530">Shin-Osaka</text>
    </g>
    <g>
      <circle cx="844" cy="336" r="18" fill="rgba(155,60,51,0.14)"/>
      <circle cx="844" cy="336" r="8.5" fill="#a74539" stroke="#fff8f2" stroke-width="4"/>
      <text x="864" y="356">Mishima / Shin-Fuji</text>
    </g>
    <g>
      <circle cx="924" cy="242" r="18" fill="rgba(155,60,51,0.14)"/>
      <circle cx="924" cy="242" r="8.5" fill="#a74539" stroke="#fff8f2" stroke-width="4"/>
      <text x="944" y="226">Mt. Fuji Area</text>
    </g>
    <g>
      <circle cx="1036" cy="150" r="18" fill="rgba(155,60,51,0.14)"/>
      <circle cx="1036" cy="150" r="8.5" fill="#a74539" stroke="#fff8f2" stroke-width="4"/>
      <text x="1056" y="134">Tokyo</text>
    </g>
  </g>
</svg>
